<svg width="36" height="37" viewBox="0 0 36 37" fill="none" xmlns="http://www.w3.org/2000/svg">
<path d="M3 18.75V8.25H9C12.75 8.25 15 10.35 15 13.5C15 16.65 12.75 18.75 9 18.75H3ZM3 18.75H9.77325C13.9028 18.75 16.5 21 16.5 24.75C16.5 28.5 13.9028 30.75 9.77325 30.75H3V18.75Z" stroke="black" stroke-width="3" stroke-linecap="round" stroke-linejoin="round"/>
<path d="M21.75 24H33C33 21 31.5 17.25 27 17.25C23.25 17.25 21 20.25 21 24C21 27.75 23.25 30.75 27 30.75C30.75 30.75 32.25 28.5 32.25 28.5M31.5 12H22.5" stroke="black" stroke-width="3" stroke-linecap="round" stroke-linejoin="round"/>
</svg>
