<svg width="166" height="31" viewBox="0 0 166 31" fill="none" xmlns="http://www.w3.org/2000/svg">
<path d="M17.072 6.632C18.1059 6.632 18.944 7.47012 18.944 8.504V28.056C18.944 29.0899 18.1059 29.928 17.072 29.928V29.928C16.0381 29.928 15.2 29.0899 15.2 28.056V20.04H3.744V28.056C3.744 29.0899 2.90588 29.928 1.872 29.928V29.928C0.838123 29.928 0 29.0899 0 28.056V8.504C0 7.47012 0.838123 6.632 1.872 6.632V6.632C2.90588 6.632 3.744 7.47012 3.744 8.504V16.456H15.2V8.504C15.2 7.47012 16.0381 6.632 17.072 6.632V6.632Z" fill="black"/>
<path d="M31.0718 22.312C29.4718 22.312 28.1064 22.0027 26.9757 21.384C25.8451 20.7653 24.9811 19.912 24.3838 18.824C23.7864 17.7147 23.4878 16.4667 23.4878 15.08C23.4878 13.7147 23.8291 12.488 24.5117 11.4C25.1944 10.312 26.1118 9.448 27.2638 8.808C28.4371 8.14667 29.7277 7.816 31.1357 7.816C32.9918 7.816 34.5171 8.36 35.7118 9.448C36.7439 10.3534 37.484 11.5816 37.9321 13.1325C38.0724 13.618 37.7838 14.1134 37.3049 14.2749L27.2318 17.672L26.3997 15.656L34.9118 12.616L34.1758 13.032C33.9411 12.392 33.5571 11.8373 33.0238 11.368C32.5118 10.8987 31.7864 10.664 30.8477 10.664C30.1011 10.664 29.4398 10.8453 28.8638 11.208C28.2878 11.5493 27.8291 12.04 27.4878 12.68C27.1678 13.2987 27.0077 14.0347 27.0077 14.888C27.0077 15.7627 27.1891 16.5307 27.5518 17.192C27.9144 17.8533 28.4051 18.3653 29.0238 18.728C29.6424 19.0693 30.3464 19.24 31.1357 19.24C31.6904 19.24 32.2238 19.144 32.7358 18.952C32.8376 18.9138 32.9382 18.8731 33.0375 18.8298C33.6875 18.5467 34.491 18.697 34.8621 19.3011V19.3011C35.3868 20.1549 35.1315 21.2867 34.2024 21.6623C33.9653 21.7582 33.7217 21.8468 33.4717 21.928C32.6397 22.184 31.8398 22.312 31.0718 22.312Z" fill="black"/>
<path d="M41.6702 7.144C41.6702 6.1543 42.4726 5.352 43.4622 5.352V5.352C44.4519 5.352 45.2542 6.1543 45.2542 7.144V28.52C45.2542 29.5097 44.4519 30.312 43.4622 30.312V30.312C42.4726 30.312 41.6702 29.5097 41.6702 28.52V7.144Z" fill="black"/>
<path d="M50.1702 4.792C50.1702 3.8023 50.9726 3 51.9622 3V3C52.9519 3 53.7542 3.80231 53.7542 4.792V26.168C53.7542 27.1577 52.9519 27.96 51.9622 27.96V27.96C50.9726 27.96 50.1702 27.1577 50.1702 26.168V4.792Z" fill="black"/>
<path d="M57.5503 22.048C57.5503 20.6827 57.8703 19.456 58.5103 18.368C59.1503 17.2587 60.0462 16.3947 61.1982 15.776C62.3716 15.136 63.6943 14.816 65.1663 14.816C66.6809 14.816 67.9929 15.136 69.1022 15.776C70.2329 16.3947 71.1076 17.2587 71.7262 18.368C72.3449 19.456 72.6543 20.6827 72.6543 22.048C72.6543 23.4133 72.3449 24.6507 71.7262 25.76C71.1076 26.848 70.2329 27.712 69.1022 28.352C67.9929 28.992 66.6702 29.312 65.1342 29.312C63.6836 29.312 62.3823 29.024 61.2303 28.448C60.0783 27.8507 59.1716 27.008 58.5103 25.92C57.8703 24.832 57.5503 23.5413 57.5503 22.048ZM61.1662 22.08C61.1662 22.8693 61.3369 23.5947 61.6782 24.256C62.0196 24.896 62.4889 25.408 63.0863 25.792C63.6836 26.176 64.3449 26.368 65.0703 26.368C65.8596 26.368 66.5422 26.176 67.1182 25.792C67.7156 25.408 68.1742 24.896 68.4942 24.256C68.8356 23.5947 69.0062 22.8693 69.0062 22.08C69.0062 21.2693 68.8356 20.544 68.4942 19.904C68.1742 19.2427 67.7156 18.72 67.1182 18.336C66.5422 17.952 65.8596 17.76 65.0703 17.76C64.3236 17.76 63.6516 17.9627 63.0542 18.368C62.4782 18.752 62.0196 19.264 61.6782 19.904C61.3369 20.544 61.1662 21.2693 61.1662 22.08Z" fill="black"/>
<path d="M87.9502 11.28C87.9502 10.2815 88.7597 9.472 89.7583 9.472V9.472C90.7568 9.472 91.5663 10.2815 91.5663 11.28V15.424H93.6782C94.4559 15.424 95.0863 16.0544 95.0863 16.832V16.832C95.0863 17.6096 94.4559 18.24 93.6782 18.24H91.5663V27.152C91.5663 28.1505 90.7568 28.96 89.7583 28.96V28.96C88.7597 28.96 87.9502 28.1505 87.9502 27.152V18.24H87.0542C86.2766 18.24 85.6462 17.6096 85.6462 16.832V16.832C85.6462 16.0544 86.2766 15.424 87.0542 15.424H87.9502V11.28Z" fill="black"/>
<path d="M100.4 24.96C99.4101 24.96 98.6077 24.1577 98.6077 23.168V1.76C98.6077 0.787977 99.3957 0 100.368 0V0C101.34 0 102.128 0.787978 102.128 1.76V14.4L102.064 13.856C102.533 12.9813 103.226 12.2667 104.144 11.712C105.061 11.136 106.16 10.848 107.44 10.848C108.72 10.848 109.776 11.2213 110.608 11.968C111.44 12.7147 111.866 13.696 111.888 14.912V23.168C111.888 24.1577 111.085 24.96 110.096 24.96V24.96C109.106 24.96 108.304 24.1577 108.304 23.168V16.192C108.282 15.5093 108.09 14.9653 107.728 14.56C107.365 14.1333 106.789 13.9093 106 13.888C105.274 13.888 104.624 14.112 104.048 14.56C103.472 15.008 103.013 15.616 102.672 16.384C102.352 17.1307 102.192 17.984 102.192 18.944V23.168C102.192 24.1577 101.389 24.96 100.4 24.96V24.96Z" fill="black"/>
<path d="M123.29 30.312C121.69 30.312 120.325 30.0027 119.195 29.384C118.064 28.7653 117.2 27.912 116.603 26.824C116.005 25.7147 115.706 24.4667 115.706 23.08C115.706 21.7147 116.048 20.488 116.73 19.4C117.413 18.312 118.33 17.448 119.482 16.808C120.656 16.1467 121.946 15.816 123.354 15.816C125.211 15.816 126.736 16.36 127.931 17.448C128.963 18.3534 129.703 19.5816 130.151 21.1325C130.291 21.618 130.003 22.1134 129.524 22.2749L119.451 25.672L118.618 23.656L127.131 20.616L126.395 21.032C126.16 20.392 125.776 19.8373 125.243 19.368C124.731 18.8987 124.005 18.664 123.066 18.664C122.32 18.664 121.658 18.8453 121.082 19.208C120.506 19.5493 120.048 20.04 119.706 20.68C119.386 21.2987 119.227 22.0347 119.227 22.888C119.227 23.7627 119.408 24.5307 119.771 25.192C120.133 25.8533 120.624 26.3653 121.243 26.728C121.861 27.0693 122.565 27.24 123.354 27.24C123.909 27.24 124.442 27.144 124.954 26.952V26.952C125.777 26.6435 126.785 26.8199 127.245 27.5685V27.5685C127.679 28.2739 127.468 29.2073 126.71 29.5404C126.383 29.6842 126.043 29.8134 125.69 29.928C124.858 30.184 124.058 30.312 123.29 30.312Z" fill="black"/>
<path d="M135.572 14.424C136.448 14.424 137.177 15.095 137.25 15.9674L137.441 18.264L137.313 17.72C137.697 16.9093 138.22 16.216 138.881 15.64C139.564 15.0427 140.257 14.5947 140.961 14.296V14.296C141.854 13.8903 142.652 14.634 142.609 15.6135V15.6135C142.565 16.5888 141.693 17.2823 140.759 17.565C140.435 17.663 140.129 17.8 139.841 17.976C139.094 18.424 138.508 19.0213 138.081 19.768C137.676 20.5147 137.473 21.304 137.473 22.136V26.168C137.473 27.1577 136.671 27.96 135.681 27.96V27.96C134.691 27.96 133.889 27.1577 133.889 26.168V16.1072C133.889 15.1776 134.643 14.424 135.572 14.424V14.424Z" fill="black"/>
<path d="M152.228 27.312C150.628 27.312 149.263 27.0027 148.132 26.384C147.001 25.7653 146.137 24.912 145.54 23.824C144.943 22.7147 144.644 21.4667 144.644 20.08C144.644 18.7147 144.985 17.488 145.668 16.4C146.351 15.312 147.268 14.448 148.42 13.808C149.593 13.1467 150.884 12.816 152.292 12.816C154.148 12.816 155.673 13.36 156.868 14.448C157.9 15.3534 158.64 16.5816 159.088 18.1325C159.229 18.618 158.94 19.1134 158.461 19.2749L148.388 22.672L147.556 20.656L156.068 17.616L155.332 18.032C155.097 17.392 154.713 16.8373 154.18 16.368C153.668 15.8987 152.943 15.664 152.004 15.664C151.257 15.664 150.596 15.8453 150.02 16.208C149.444 16.5493 148.985 17.04 148.644 17.68C148.324 18.2987 148.164 19.0347 148.164 19.888C148.164 20.7627 148.345 21.5307 148.708 22.192C149.071 22.8533 149.561 23.3653 150.18 23.728C150.799 24.0693 151.503 24.24 152.292 24.24C152.847 24.24 153.38 24.144 153.892 23.952V23.952C154.715 23.6435 155.723 23.8199 156.183 24.5685V24.5685C156.616 25.2739 156.406 26.2073 155.648 26.5404C155.321 26.6842 154.981 26.8134 154.628 26.928C153.796 27.184 152.996 27.312 152.228 27.312Z" fill="black"/>
<path d="M161.93 3.176C161.93 2.29234 162.647 1.576 163.53 1.576V1.576C164.414 1.576 165.13 2.29234 165.13 3.176V18.216C165.13 19.0997 164.414 19.816 163.53 19.816V19.816C162.647 19.816 161.93 19.0997 161.93 18.216V10.696V3.176ZM163.626 26.056C162.986 26.056 162.453 25.8853 162.027 25.544C161.621 25.1813 161.419 24.712 161.419 24.136C161.419 23.5813 161.621 23.112 162.027 22.728C162.453 22.344 162.986 22.152 163.626 22.152C164.245 22.152 164.757 22.344 165.163 22.728C165.568 23.112 165.771 23.5813 165.771 24.136C165.771 24.712 165.568 25.1813 165.163 25.544C164.779 25.8853 164.266 26.056 163.626 26.056Z" fill="black"/>
</svg>
